<?xml version="1.0" encoding="UTF-8" standalone="no"?>
<!-- Created with Inkscape (http://www.inkscape.org/) -->

<svg
   xmlns:dc="http://purl.org/dc/elements/1.1/"
   xmlns:cc="http://creativecommons.org/ns#"
   xmlns:rdf="http://www.w3.org/1999/02/22-rdf-syntax-ns#"
   xmlns:svg="http://www.w3.org/2000/svg"
   xmlns="http://www.w3.org/2000/svg"
   xmlns:sodipodi="http://sodipodi.sourceforge.net/DTD/sodipodi-0.dtd"
   xmlns:inkscape="http://www.inkscape.org/namespaces/inkscape"
   version="1.1"
   width="16"
   height="16"
   id="svg7384"
   inkscape:version="0.48.4 r9939"
   sodipodi:docname="adblock-enabled.svg">
  <sodipodi:namedview
     pagecolor="#ffffff"
     bordercolor="#666666"
     borderopacity="1"
     objecttolerance="10"
     gridtolerance="10"
     guidetolerance="10"
     inkscape:pageopacity="0"
     inkscape:pageshadow="2"
     inkscape:window-width="1920"
     inkscape:window-height="1026"
     id="namedview10"
     showgrid="false"
     inkscape:zoom="14.75"
     inkscape:cx="8"
     inkscape:cy="8"
     inkscape:window-x="0"
     inkscape:window-y="32"
     inkscape:window-maximized="1"
     inkscape:current-layer="svg7384" />
  <title
     id="title9167">Gnome Symbolic Icon Theme</title>
  <defs
     id="defs10" />
  <metadata
     id="metadata90">
    <rdf:RDF>
      <cc:Work
         rdf:about="">
        <dc:format>image/svg+xml</dc:format>
        <dc:type
           rdf:resource="http://purl.org/dc/dcmitype/StillImage" />
        <dc:title>Gnome Symbolic Icon Theme</dc:title>
      </cc:Work>
    </rdf:RDF>
  </metadata>
  <g
     transform="translate(-111.61542,-601.4038)"
     id="layer12">
    <path
       d="m 228.01,607.02 c -3.86,0 -7.0073,3.166 -7.0073,7.0103 0,3.8443 3.1472,6.9787 7.0073,6.9787 3.86,0 7.0073,-3.1344 7.0073,-6.9787 0,-3.8443 -3.1472,-7.0103 -7.0073,-7.0103 z m 0,2.021 c 2.7769,0 5.0097,2.2237 5.0097,4.9893 0,2.7656 -2.2328,4.9577 -5.0097,4.9577 -2.777,0 -5.0097,-2.1921 -5.0097,-4.9577 0,-2.7656 2.2328,-4.9893 5.0097,-4.9893 z"
       id="path4222"
       style="text-indent:0;text-transform:none;block-progression:tb;color:#000000;fill:#bebebe" />
    <path
       d="m 231.41,609.44 -8,8 1.4062,1.4062 8,-8 -1.4062,-1.4062 z"
       id="path4992"
       style="text-indent:0;text-transform:none;block-progression:tb;color:#000000;fill:#bebebe" />
  </g>
  <path
     d="m 7.96875,0.6875 c -2.8420838,0 -2.8771973,1.9949742 -6.625,2.3125 0,0 -0.98752557,2.5363552 0.34375,6 0.8399195,2.18526 4.3935259,5.981297 6.1875,6 l 0.25,0 C 9.9189736,14.9813 13.472581,11.18526 14.3125,9 15.643775,5.5363552 14.65625,3 14.65625,3 10.908448,2.6824742 10.873333,0.6875 8.03125,0.6875 l -0.0625,0 z m -0.625,2 c 0.1719617,-0.02159 0.3665606,0 0.625,0 l 0.0625,0 c 1.0337572,0 1.1746055,0.1513488 2.03125,0.625 0.133299,0.073703 0.361318,0.1808693 0.53125,0.28125 L 4.0625,9.25 C 3.8118632,8.860346 3.6127069,8.4931804 3.53125,8.28125 2.8541774,6.5196771 2.8806279,5.4183698 3,4.65625 4.2800363,4.3579974 5.3166759,3.6557627 5.9375,3.3125 6.5799833,2.9572616 6.8278648,2.7522692 7.34375,2.6875 z m 5.21875,1.84375 c 0.146121,0.046432 0.28409,0.089255 0.4375,0.125 0.119372,0.7621199 0.145822,1.863427 -0.53125,3.625 -0.223946,0.5826518 -1.210812,2.079776 -2.28125,3.15625 -0.535219,0.538237 -1.0931989,0.993886 -1.53125,1.28125 -0.2903916,0.190498 -0.5086712,0.283423 -0.5625,0.3125 l -0.15625,0 C 7.9117131,13.007739 7.6583409,12.925123 7.34375,12.71875 6.905699,12.431386 6.3477189,11.975737 5.8125,11.4375 5.6307383,11.254713 5.4548666,11.044257 5.28125,10.84375 l 7.28125,-6.3125 z"
     id="path3016-2"
     style="color:#000000;fill:#4e9a06;fill-opacity:1;fill-rule:nonzero;stroke:none;stroke-width:1;marker:none;visibility:visible;display:inline;overflow:visible;enable-background:accumulate" />
  <path
     style="fill:#000000;fill-opacity:0"
     d="M 3.8914706,8.8841635 C 3.4103263,8.1221753 3.0583616,6.8749414 3.003735,5.7383534 2.9786317,5.2160416 2.9904131,4.8722447 3.036357,4.7863976 3.0800139,4.7048241 3.2418563,4.6177843 3.4482218,4.5648944 3.8914458,4.4512995 4.5265161,4.1442388 5.8961843,3.3812883 L 7.0127075,2.7593478 7.7697676,2.7353155 C 8.6627475,2.7069685 9.052772,2.7983017 9.8276868,3.2172249 10.1089,3.3692502 10.375652,3.52161 10.420468,3.5558023 10.491273,3.609822 8.8213493,5.090833 4.1912034,9.0803713 4.0886836,9.1687069 4.0587803,9.149132 3.8914706,8.8841635 l 0,0 z"
     id="path2987"
     inkscape:connector-curvature="0" />
  <path
     style="fill:#000000;fill-opacity:0"
     d="M 7.5676774,12.795393 C 7.0256619,12.469009 6.4290755,11.979639 5.8305085,11.370422 5.33023,10.861243 5.3242581,10.851054 5.4600194,10.738315 5.5359114,10.675293 7.1641368,9.2661017 9.0782981,7.6067797 11.684369,5.3476641 12.594872,4.5953246 12.703024,4.6117025 c 0.291451,0.044135 0.329784,0.1886522 0.290923,1.0967721 -0.07204,1.6834953 -0.589725,2.9526655 -1.866622,4.5762714 -0.495094,0.629525 -1.366327,1.526375 -1.8854314,1.94087 C 8.8466967,12.541173 8.091686,13.030508 8,13.030508 c -0.023031,0 -0.2175765,-0.105802 -0.4323226,-0.235115 z"
     id="path2989"
     inkscape:connector-curvature="0" />
</svg>
