<?xml version="1.0" encoding="UTF-8" standalone="no"?>
<!-- Created with Inkscape (http://www.inkscape.org/) -->

<svg
   xmlns:dc="http://purl.org/dc/elements/1.1/"
   xmlns:cc="http://creativecommons.org/ns#"
   xmlns:rdf="http://www.w3.org/1999/02/22-rdf-syntax-ns#"
   xmlns:svg="http://www.w3.org/2000/svg"
   xmlns="http://www.w3.org/2000/svg"
   version="1.1"
   width="16"
   height="16"
   id="svg7384">
  <title
     id="title9167">Gnome Symbolic Icon Theme</title>
  <defs
     id="defs10" />
  <metadata
     id="metadata90">
    <rdf:RDF>
      <cc:Work
         rdf:about="">
        <dc:format>image/svg+xml</dc:format>
        <dc:type
           rdf:resource="http://purl.org/dc/dcmitype/StillImage" />
        <dc:title>Gnome Symbolic Icon Theme</dc:title>
      </cc:Work>
    </rdf:RDF>
  </metadata>
  <g
     transform="translate(-111.61542,-601.4038)"
     id="layer12">
    <path
       d="m 228.01,607.02 c -3.86,0 -7.0073,3.166 -7.0073,7.0103 0,3.8443 3.1472,6.9787 7.0073,6.9787 3.86,0 7.0073,-3.1344 7.0073,-6.9787 0,-3.8443 -3.1472,-7.0103 -7.0073,-7.0103 z m 0,2.021 c 2.7769,0 5.0097,2.2237 5.0097,4.9893 0,2.7656 -2.2328,4.9577 -5.0097,4.9577 -2.777,0 -5.0097,-2.1921 -5.0097,-4.9577 0,-2.7656 2.2328,-4.9893 5.0097,-4.9893 z"
       id="path4222"
       style="text-indent:0;text-transform:none;block-progression:tb;color:#000000;fill:#bebebe" />
    <path
       d="m 231.41,609.44 -8,8 1.4062,1.4062 8,-8 -1.4062,-1.4062 z"
       id="path4992"
       style="text-indent:0;text-transform:none;block-progression:tb;color:#000000;fill:#bebebe" />
  </g>
  <path
     d="m 7.96875,0.6875 c -2.8420838,0 -2.8771973,1.9949742 -6.625,2.3125 0,0 -0.98752557,2.5363552 0.34375,6 0.8399195,2.18526 4.3935259,5.981297 6.1875,6 l 0.25,0 C 9.9189736,14.9813 13.472581,11.18526 14.3125,9 15.643775,5.5363552 14.65625,3 14.65625,3 10.908448,2.6824742 10.873333,0.6875 8.03125,0.6875 l -0.0625,0 z m -0.625,2 c 0.1719617,-0.02159 0.3665606,0 0.625,0 l 0.0625,0 c 1.0337572,0 1.1746055,0.1513488 2.03125,0.625 0.133299,0.073703 0.361318,0.1808693 0.53125,0.28125 L 4.0625,9.25 C 3.8118632,8.860346 3.6127069,8.4931804 3.53125,8.28125 2.8541774,6.5196771 2.8806279,5.4183698 3,4.65625 4.2800363,4.3579974 5.3166759,3.6557627 5.9375,3.3125 6.5799833,2.9572616 6.8278648,2.7522692 7.34375,2.6875 z m 5.21875,1.84375 c 0.146121,0.046432 0.28409,0.089255 0.4375,0.125 0.119372,0.7621199 0.145822,1.863427 -0.53125,3.625 -0.223946,0.5826518 -1.210812,2.079776 -2.28125,3.15625 -0.535219,0.538237 -1.0931989,0.993886 -1.53125,1.28125 -0.2903916,0.190498 -0.5086712,0.283423 -0.5625,0.3125 l -0.15625,0 C 7.9117131,13.007739 7.6583409,12.925123 7.34375,12.71875 6.905699,12.431386 6.3477189,11.975737 5.8125,11.4375 5.6307383,11.254713 5.4548666,11.044257 5.28125,10.84375 l 7.28125,-6.3125 z"
     id="path3016-2"
     style="color:#000000;fill:#808080;fill-opacity:1;fill-rule:nonzero;stroke:none;stroke-width:1;marker:none;visibility:visible;display:inline;overflow:visible;enable-background:accumulate" />
</svg>
