<?xml version="1.0" encoding="UTF-8" standalone="no"?>
<svg
   xmlns:dc="http://purl.org/dc/elements/1.1/"
   xmlns:cc="http://creativecommons.org/ns#"
   xmlns:rdf="http://www.w3.org/1999/02/22-rdf-syntax-ns#"
   xmlns:svg="http://www.w3.org/2000/svg"
   xmlns="http://www.w3.org/2000/svg"
   xmlns:xlink="http://www.w3.org/1999/xlink"
   id="svg7384"
   height="24"
   width="24"
   version="1.1">
  <title
     id="title9167">Gnome Symbolic Icon Theme</title>
  <defs
     id="defs10">
    <linearGradient
       id="linearGradient4558">
      <stop
         offset="0"
         style="stop-color:#ffffff;stop-opacity:1"
         id="stop4560" />
      <stop
         offset="0.22383958"
         style="stop-color:#ffffff;stop-opacity:0.23529412"
         id="stop4562" />
      <stop
         offset="0.59868193"
         style="stop-color:#ffffff;stop-opacity:0.15686275"
         id="stop4564" />
      <stop
         offset="1"
         style="stop-color:#ffffff;stop-opacity:0.39215687"
         id="stop4566" />
    </linearGradient>
    <linearGradient
       id="linearGradient8838">
      <stop
         id="stop8840"
         style="stop-color:#000000;stop-opacity:1"
         offset="0" />
      <stop
         id="stop8842"
         style="stop-color:#000000;stop-opacity:0"
         offset="1" />
    </linearGradient>
    <radialGradient
       cx="62.625"
       cy="4.625"
       r="10.625"
       fx="62.625"
       fy="4.625"
       id="radialGradient3049"
       xlink:href="#linearGradient8838"
       gradientUnits="userSpaceOnUse"
       gradientTransform="matrix(1.0352941,0,0,0.42352883,-52.835297,17.541176)" />
    <linearGradient
       id="linearGradient4632-0-6-4-3-4-0">
      <stop
         id="stop4634-4-4-7-7-4-8"
         style="stop-color:#e9e9e9;stop-opacity:1"
         offset="0" />
      <stop
         id="stop4636-3-1-5-1-3-9"
         style="stop-color:#b4b4b4;stop-opacity:1"
         offset="1" />
    </linearGradient>
    <linearGradient
       y2="87.722054"
       x2="-38.289993"
       y1="44.545967"
       x1="-38.289993"
       gradientTransform="matrix(0.4666607,0,0,0.46428558,29.868435,-18.719767)"
       gradientUnits="userSpaceOnUse"
       id="linearGradient3647"
       xlink:href="#linearGradient4632-0-6-4-3-4-0" />
    <linearGradient
       y2="52.920029"
       x2="-25.723886"
       y1="29.608633"
       x1="-25.723886"
       gradientTransform="matrix(0.62762637,0,0,0.7245642,29.541728,-17.849962)"
       gradientUnits="userSpaceOnUse"
       id="linearGradient4556"
       xlink:href="#linearGradient4558" />
    <linearGradient
       gradientUnits="userSpaceOnUse"
       y2="22.055216"
       x2="9.424572"
       y1="-10.106976"
       x1="9.424572"
       id="linearGradient4826"
       xlink:href="#linearGradient3690" />
    <linearGradient
       id="linearGradient3690">
      <stop
         id="stop3692"
         style="stop-color:#ffeb9f;stop-opacity:1"
         offset="0" />
      <stop
         id="stop3694"
         style="stop-color:#ffd57e;stop-opacity:1"
         offset="0.26238" />
      <stop
         id="stop3696"
         style="stop-color:#ffbc43;stop-opacity:1"
         offset="0.66093999" />
      <stop
         id="stop3698"
         style="stop-color:#ff921a;stop-opacity:1"
         offset="1" />
    </linearGradient>
  </defs>
  <metadata
     id="metadata90">
    <rdf:RDF>
      <cc:Work
         rdf:about="">
        <dc:format>image/svg+xml</dc:format>
        <dc:type
           rdf:resource="http://purl.org/dc/dcmitype/StillImage" />
        <dc:title>Gnome Symbolic Icon Theme</dc:title>
      </cc:Work>
    </rdf:RDF>
  </metadata>
  <path
     style="display:inline;overflow:visible;visibility:visible;opacity:0.3;fill:url(#radialGradient3049);fill-opacity:1;fill-rule:evenodd;stroke:none;stroke-width:0.99999988;marker:none"
     id="path8836"
     d="M 23,19.499999 C 23,21.985281 18.075131,24 12,24 5.924868,24 1,21.985281 1,19.499999 1,17.014718 5.924868,15 12,15 c 6.075131,0 11,2.014718 11,4.499999 l 0,0 z" />
  <g
     id="layer12"
     transform="translate(-111.61542,-593.4038)">
    <path
       style="color:#000000;text-indent:0;text-transform:none;block-progression:tb;fill:#bebebe"
       id="path4222"
       d="m 228.01,607.02 c -3.86,0 -7.0073,3.166 -7.0073,7.0103 0,3.8443 3.1472,6.9787 7.0073,6.9787 3.86,0 7.0073,-3.1344 7.0073,-6.9787 0,-3.8443 -3.1472,-7.0103 -7.0073,-7.0103 z m 0,2.021 c 2.7769,0 5.0097,2.2237 5.0097,4.9893 0,2.7656 -2.2328,4.9577 -5.0097,4.9577 -2.777,0 -5.0097,-2.1921 -5.0097,-4.9577 0,-2.7656 2.2328,-4.9893 5.0097,-4.9893 z" />
    <path
       style="color:#000000;text-indent:0;text-transform:none;block-progression:tb;fill:#bebebe"
       id="path4992"
       d="m 231.41,609.44 -8,8 1.4062,1.4062 8,-8 -1.4062,-1.4062 z" />
  </g>
  <path
     id="path2987"
     d="M 3.8914706,16.884163 C 3.4103263,16.122175 3.0583616,14.874941 3.003735,13.738353 2.9786317,13.216042 2.9904131,12.872245 3.036357,12.786398 3.0800139,12.704824 3.2418563,12.617784 3.4482218,12.564894 3.8914458,12.4513 4.5265161,12.144239 5.8961843,11.381288 l 1.1165232,-0.62194 0.7570601,-0.02403 c 0.8929799,-0.02835 1.2830044,0.06299 2.0579192,0.481909 0.2812132,0.152025 0.5479652,0.304385 0.5927812,0.338577 0.07081,0.05402 -1.5991187,1.535031 -6.2292646,5.524569 -0.1025198,0.08834 -0.1324231,0.06876 -0.2997328,-0.196208 l 0,0 z"
     style="fill:#000000;fill-opacity:0" />
  <path
     id="path2989"
     d="M 7.5676774,20.795393 C 7.0256619,20.469009 6.4290755,19.979639 5.8305085,19.370422 5.33023,18.861243 5.3242581,18.851054 5.4600194,18.738315 c 0.075892,-0.06302 1.7041174,-1.472213 3.6182787,-3.131535 2.6060709,-2.259116 3.5165739,-3.011455 3.6247259,-2.995077 0.291451,0.04413 0.329784,0.188652 0.290923,1.096772 -0.07204,1.683495 -0.589725,2.952665 -1.866622,4.576271 -0.495094,0.629525 -1.366327,1.526375 -1.8854314,1.94087 C 8.8466967,20.541173 8.091686,21.030508 8,21.030508 c -0.023031,0 -0.2175765,-0.105802 -0.4323226,-0.235115 z"
     style="fill:#000000;fill-opacity:0" />
  <path
     style="color:#000000;clip-rule:nonzero;display:inline;overflow:visible;visibility:visible;opacity:1;isolation:auto;mix-blend-mode:normal;color-interpolation:sRGB;color-interpolation-filters:linearRGB;solid-color:#000000;solid-opacity:1;fill:url(#linearGradient3647);fill-opacity:1;fill-rule:nonzero;stroke:none;stroke-width:0.99999988;stroke-linecap:butt;stroke-linejoin:miter;stroke-miterlimit:4;stroke-dasharray:none;stroke-dashoffset:0;stroke-opacity:1;marker:none;color-rendering:auto;image-rendering:auto;shape-rendering:auto;text-rendering:auto;enable-background:accumulate"
     id="path3016-2"
     d="M 11.955413,2 C 7.9002937,2 7.8501927,4.7877367 2.5027824,5.2314411 c 0,0 -1.4090126,3.5442522 0.4904667,8.3842799 C 4.1916569,16.66936 9.2619851,21.973865 11.821648,22 l 0.356704,0 C 14.738015,21.97387 19.808345,16.66936 21.00675,13.615721 22.906231,8.7756933 21.497217,5.2314411 21.497217,5.2314411 16.149808,4.7877367 16.099706,2 12.044587,2 Z" />
  <path
     style="color:#000000;clip-rule:nonzero;display:inline;overflow:visible;visibility:visible;opacity:0.3;isolation:auto;mix-blend-mode:normal;color-interpolation:sRGB;color-interpolation-filters:linearRGB;solid-color:#000000;solid-opacity:1;fill:none;fill-opacity:1;fill-rule:nonzero;stroke:#000000;stroke-width:0.99999988;stroke-linecap:round;stroke-linejoin:round;stroke-miterlimit:4;stroke-dasharray:none;stroke-dashoffset:0;stroke-opacity:1;marker:none;color-rendering:auto;image-rendering:auto;shape-rendering:auto;text-rendering:auto;enable-background:accumulate;filter-blend-mode:normal;filter-gaussianBlur-deviation:0"
     id="path3016-2-1"
     d="m 11.955413,2.037717 c -4.0551193,0 -4.1052203,2.7877367 -9.4526306,3.2314411 0,0 -1.4090126,3.5442522 0.4904667,8.3842799 1.1984078,3.053639 6.268736,8.358144 8.8283989,8.384279 l 0.356704,0 c 2.559663,-0.02613 7.629993,-5.33064 8.828398,-8.384279 C 22.906231,8.8134103 21.497217,5.2691581 21.497217,5.2691581 16.149808,4.8254537 16.099706,2.037717 12.044587,2.037717 Z" />
  <path
     style="color:#000000;clip-rule:nonzero;display:inline;overflow:visible;visibility:visible;opacity:1;isolation:auto;mix-blend-mode:normal;color-interpolation:sRGB;color-interpolation-filters:linearRGB;solid-color:#000000;solid-opacity:1;fill:none;fill-opacity:1;fill-rule:nonzero;stroke:url(#linearGradient4556);stroke-width:1.00000012;stroke-linecap:round;stroke-linejoin:miter;stroke-miterlimit:4;stroke-dasharray:none;stroke-dashoffset:0;stroke-opacity:1;marker:none;color-rendering:auto;image-rendering:auto;shape-rendering:auto;text-rendering:auto;enable-background:accumulate;filter-blend-mode:normal;filter-gaussianBlur-deviation:0"
     id="path3016-2-1-1"
     d="m 11.955413,3.0543523 c -3.6409345,0 -3.5027696,2.4488582 -8.6995673,3.1184816 0,0 -0.9319349,4.2684311 1.0552641,7.8571351 2.0746863,3.746699 5.7415922,6.964978 7.5105382,6.991113 l 0.356704,0 c 1.844253,-0.02613 6.613358,-4.502271 7.811763,-7.55591 C 21.889596,8.6251444 20.668848,6.2104871 20.668848,6.2104871 15.283785,5.2772916 15.723174,3.0543523 12.044587,3.0543523 Z" />
  <path
     id="path4589-8"
     d="m 11.064453,6.0934752 c -0.736072,0.090507 -1.0911094,0.3766442 -2.0078124,0.8730469 -0.8858,0.4796687 -2.3650342,1.4601803 -4.1914062,1.8769531 -0.170321,1.0649711 -0.2082425,2.6048188 0.7578125,5.0664058 0.116224,0.296146 0.4021556,0.809023 0.7597656,1.353516 L 15.701172,7.3591002 C 15.45871,7.2188299 15.133552,7.0695094 14.943359,6.9665221 13.721089,6.3046514 13.519899,6.0934752 12.044922,6.0934752 l -0.08984,0 c -0.368744,0 -0.645267,-0.030169 -0.890625,0 z M 18.509766,8.6696471 8.1210938,17.489959 c 0.2477189,0.280185 0.4984735,0.574654 0.7578124,0.830078 0.7636571,0.752121 1.5605298,1.389459 2.1855468,1.791016 0.448862,0.28838 0.808903,0.402687 0.845703,0.435547 l 0.222656,0 c 0.07681,-0.04063 0.388401,-0.16935 0.802735,-0.435547 0.625016,-0.401557 1.421891,-1.038895 2.185547,-1.791016 1.527315,-1.504244 2.93633,-3.59597 3.255859,-4.410156 0.966054,-2.461587 0.928134,-4.0014347 0.757813,-5.0664058 -0.218887,-0.049956 -0.416513,-0.1089482 -0.625,-0.1738281 z"
     style="color:#000000;display:inline;overflow:visible;visibility:visible;opacity:0.5;fill:#ffffff;fill-opacity:1;fill-rule:nonzero;stroke:none;stroke-width:1;marker:none;enable-background:accumulate" />
  <path
     id="path4589"
     d="M 11.064453 4.7949219 C 10.328381 4.8854287 9.9733436 5.1715661 9.0566406 5.6679688 C 8.1708406 6.1476375 6.6916064 7.1281491 4.8652344 7.5449219 C 4.6949134 8.609893 4.6569919 10.149741 5.6230469 12.611328 C 5.7392709 12.907474 6.0252025 13.420351 6.3828125 13.964844 L 15.701172 6.0605469 C 15.45871 5.9202766 15.133552 5.7709561 14.943359 5.6679688 C 13.721089 5.006098 13.519899 4.7949219 12.044922 4.7949219 L 11.955078 4.7949219 C 11.586334 4.7949219 11.309811 4.7647529 11.064453 4.7949219 z M 18.509766 7.3710938 L 8.1210938 16.191406 C 8.3688127 16.471591 8.6195673 16.76606 8.8789062 17.021484 C 9.6425633 17.773605 10.439436 18.410943 11.064453 18.8125 C 11.513315 19.10088 11.873356 19.215187 11.910156 19.248047 L 12.132812 19.248047 C 12.209618 19.207416 12.521213 19.078697 12.935547 18.8125 C 13.560563 18.410943 14.357438 17.773605 15.121094 17.021484 C 16.648409 15.51724 18.057424 13.425514 18.376953 12.611328 C 19.343007 10.149741 19.305087 8.609893 19.134766 7.5449219 C 18.915879 7.4949656 18.718253 7.4359737 18.509766 7.3710938 z "
     style="color:#000000;display:inline;overflow:visible;visibility:visible;fill:url(#linearGradient4826);fill-opacity:1;fill-rule:nonzero;stroke:none;stroke-width:1;marker:none;enable-background:accumulate" />
  <path
     d="M 11.128906,5.3183594 C 10.506281,5.3949169 10.249824,5.6231282 9.3085938,6.1328125 8.5357819,6.551297 7.1129542,7.4260208 5.3789062,7.9121094 5.2513275,8.8949358 5.2491088,10.21101 6.1152344,12.417969 c 0.049097,0.125103 0.2561506,0.460783 0.4121094,0.732422 L 14.759766,6.1679688 c -0.02188,-0.011461 -0.04786,-0.024056 -0.06836,-0.035156 C 13.449105,5.4600947 13.469472,5.3242188 12.044922,5.3242188 l -0.08984,0 c -0.39756,0 -0.67088,-0.024954 -0.826172,-0.00586 z M 18.621094,7.96875 8.8808594,16.240234 c 0.1231185,0.137329 0.2502373,0.287189 0.3691406,0.404297 0.7390542,0.72789 1.516664,1.34813 2.099609,1.722657 0.197093,0.126625 0.375877,0.215395 0.511719,0.277343 0.0626,0.02855 0.113457,0.05021 0.160156,0.07031 0.04444,-0.02072 0.08032,-0.03876 0.146485,-0.07227 0.127024,-0.06432 0.293344,-0.153914 0.482422,-0.27539 0.582944,-0.374528 1.360556,-0.994768 2.099609,-1.722657 0.7343,-0.723208 1.455186,-1.602505 2.023438,-2.394531 0.568251,-0.792026 0.991833,-1.527549 1.111328,-1.832031 0.851966,-2.170884 0.856786,-3.4700009 0.736328,-4.449219 z"
     id="path4628"
     style="color:#000000;display:inline;overflow:visible;visibility:visible;fill:none;fill-opacity:1;fill-rule:nonzero;stroke:#000000;stroke-width:1;marker:none;enable-background:accumulate;opacity:0.15" />
</svg>
