<?xml version="1.0" encoding="UTF-8" standalone="no"?>
<!-- Created with Inkscape (http://www.inkscape.org/) -->
<svg
   xmlns:dc="http://purl.org/dc/elements/1.1/"
   xmlns:cc="http://creativecommons.org/ns#"
   xmlns:rdf="http://www.w3.org/1999/02/22-rdf-syntax-ns#"
   xmlns:svg="http://www.w3.org/2000/svg"
   xmlns="http://www.w3.org/2000/svg"
   xmlns:xlink="http://www.w3.org/1999/xlink"
   xmlns:sodipodi="http://sodipodi.sourceforge.net/DTD/sodipodi-0.dtd"
   xmlns:inkscape="http://www.inkscape.org/namespaces/inkscape"
   width="48"
   height="48"
   id="svg2"
   sodipodi:version="0.32"
   inkscape:version="0.46"
   version="1.0"
   sodipodi:docname="puzzle.svg"
   inkscape:output_extension="org.inkscape.output.svg.inkscape">
  <defs
     id="defs4">
    <linearGradient
       inkscape:collect="always"
       id="linearGradient3301">
      <stop
         style="stop-color:#888a85;stop-opacity:1;"
         offset="0"
         id="stop3303" />
      <stop
         style="stop-color:#888a85;stop-opacity:0;"
         offset="1"
         id="stop3305" />
    </linearGradient>
    <linearGradient
       id="linearGradient3259">
      <stop
         style="stop-color:#254109;stop-opacity:1;"
         offset="0"
         id="stop3261" />
      <stop
         style="stop-color:#c1f093;stop-opacity:0;"
         offset="1"
         id="stop3263" />
    </linearGradient>
    <linearGradient
       id="linearGradient3229">
      <stop
         style="stop-color:#6fcb15;stop-opacity:1;"
         offset="0"
         id="stop3231" />
      <stop
         style="stop-color:#73d216;stop-opacity:0;"
         offset="1"
         id="stop3233" />
    </linearGradient>
    <inkscape:perspective
       sodipodi:type="inkscape:persp3d"
       inkscape:vp_x="0 : 526.18109 : 1"
       inkscape:vp_y="0 : 1000 : 0"
       inkscape:vp_z="744.09448 : 526.18109 : 1"
       inkscape:persp3d-origin="372.04724 : 350.78739 : 1"
       id="perspective10" />
    <inkscape:perspective
       id="perspective2447"
       inkscape:persp3d-origin="372.04724 : 350.78739 : 1"
       inkscape:vp_z="744.09448 : 526.18109 : 1"
       inkscape:vp_y="0 : 1000 : 0"
       inkscape:vp_x="0 : 526.18109 : 1"
       sodipodi:type="inkscape:persp3d" />
    <linearGradient
       inkscape:collect="always"
       xlink:href="#linearGradient3229"
       id="linearGradient3235"
       x1="371.78729"
       y1="555.55804"
       x2="320.8378"
       y2="501.43228"
       gradientUnits="userSpaceOnUse" />
    <filter
       inkscape:collect="always"
       id="filter3287"
       x="-0.013903426"
       width="1.0278069"
       y="-0.11628319"
       height="1.2325664">
      <feGaussianBlur
         inkscape:collect="always"
         stdDeviation="0.20189084"
         id="feGaussianBlur3289" />
    </filter>
    <linearGradient
       inkscape:collect="always"
       xlink:href="#linearGradient3229"
       id="linearGradient3299"
       gradientUnits="userSpaceOnUse"
       x1="371.78729"
       y1="555.55804"
       x2="320.8378"
       y2="501.43228" />
    <radialGradient
       inkscape:collect="always"
       xlink:href="#linearGradient3301"
       id="radialGradient3307"
       cx="17.704134"
       cy="44.27507"
       fx="17.704134"
       fy="44.27507"
       r="17.425131"
       gradientTransform="matrix(1.4191617,0,0,0.1195652,-7.4208958,38.981304)"
       gradientUnits="userSpaceOnUse" />
    <linearGradient
       inkscape:collect="always"
       xlink:href="#linearGradient3229"
       id="linearGradient3310"
       gradientUnits="userSpaceOnUse"
       x1="371.78729"
       y1="555.55804"
       x2="307.07446"
       y2="483.37579"
       gradientTransform="translate(0.1262691,0)" />
  </defs>
  <sodipodi:namedview
     id="base"
     pagecolor="#ffffff"
     bordercolor="#666666"
     borderopacity="1.0"
     inkscape:pageopacity="0.0"
     inkscape:pageshadow="2"
     inkscape:zoom="7.9195959"
     inkscape:cx="-31.755352"
     inkscape:cy="29.67997"
     inkscape:document-units="px"
     inkscape:current-layer="layer1"
     showgrid="true"
     inkscape:snap-global="false"
     inkscape:window-width="997"
     inkscape:window-height="795"
     inkscape:window-x="0"
     inkscape:window-y="0">
    <inkscape:grid
       type="xygrid"
       id="grid2455"
       visible="true"
       enabled="true" />
  </sodipodi:namedview>
  <metadata
     id="metadata7">
    <rdf:RDF>
      <cc:Work
         rdf:about="">
        <dc:format>image/svg+xml</dc:format>
        <dc:type
           rdf:resource="http://purl.org/dc/dcmitype/StillImage" />
        <dc:creator>
          <cc:Agent>
            <dc:title>Nancy Runge</dc:title>
          </cc:Agent>
        </dc:creator>
        <dc:rights>
          <cc:Agent>
            <dc:title>licenced under LGPL</dc:title>
          </cc:Agent>
        </dc:rights>
        <dc:title>Extensions</dc:title>
        <dc:publisher>
          <cc:Agent>
            <dc:title>http://www.twotoasts.de</dc:title>
          </cc:Agent>
        </dc:publisher>
      </cc:Work>
    </rdf:RDF>
  </metadata>
  <g
     inkscape:label="Ebene 1"
     inkscape:groupmode="layer"
     id="layer1"
     transform="translate(-334.84263,-513.45087)">
    <path
       sodipodi:type="arc"
       style="opacity:0.52803034;fill:url(#radialGradient3307);fill-opacity:1;fill-rule:evenodd;stroke:none;stroke-width:1;stroke-linecap:round;stroke-linejoin:round;stroke-miterlimit:4;stroke-dasharray:none;stroke-opacity:1;filter:url(#filter3287)"
       id="path3257"
       sodipodi:cx="20.834396"
       sodipodi:cy="44.275063"
       sodipodi:rx="17.425131"
       sodipodi:ry="2.0834396"
       d="M 38.259527,44.275063 A 17.425131,2.0834396 0 1 1 3.4092655,44.275063 A 17.425131,2.0834396 0 1 1 38.259527,44.275063 z"
       transform="matrix(1.2065218,0,0,1.6363637,333.12839,482.68731)" />
    <path
       style="fill:#c1f093;fill-opacity:1;fill-rule:evenodd;stroke:#499402;stroke-width:1;stroke-linecap:round;stroke-linejoin:round;stroke-opacity:1"
       d="M 337.59808,522.17297 L 337.72435,533.84844 C 339.47847,534.10639 341.10631,535.92142 342.86043,535.22887 C 354.484,532.75774 350.70132,551.41563 342.10964,542.50639 C 340.64788,541.6646 339.18611,542.12627 337.72435,542.15558 L 337.67073,553.72581 L 353.23389,553.73869 C 354.05552,552.4318 354.72796,551.87106 354.60115,550.08995 C 351.64196,539.72544 369.94217,539.26102 360.04106,550.78887 C 359.83384,551.92692 361.24191,552.43363 361.98031,553.57168 L 369.96412,553.44765 L 369.96412,540.88184 C 370.96339,539.9698 371.96266,540.18833 372.96193,540.17836 C 384.45308,546.41513 382.69169,524.21109 372.50653,532.25474 C 371.79768,532.78933 371.04359,533.05251 370.0988,532.17145 L 370.0988,521.99757 L 362.85737,521.99757 C 361.30432,524.66021 361.13738,525.26649 361.37766,526.1182 C 368.03927,535.17088 347.04741,536.92703 352.54122,528.11641 C 354.21415,526.75748 354.49233,523.14925 354.4376,521.99756 L 337.57862,522.11095"
       id="path2453"
       sodipodi:nodetypes="ccccccccccccccccccccc" />
    <path
       style="fill:url(#linearGradient3310);fill-opacity:1;fill-rule:evenodd;stroke:none;stroke-width:0.87325984000000001;stroke-linecap:round;stroke-linejoin:round;stroke-opacity:1"
       d="M 339.0736,523.88908 L 339.37844,532.79484 C 340.92793,533.01753 342.49273,534.03344 344.04222,533.43557 C 356.8745,532.10371 351.782,552.26286 342.62716,544.9362 C 341.58846,543.57814 340.36483,543.48432 339.0736,543.50962 L 339.13777,552.19979 L 352.02889,552.1019 C 352.95857,551.13679 354.00081,551.05253 352.57409,548.46314 C 352.71994,537.89846 369.3947,537.1685 362.99814,549.56575 C 362.81509,550.54821 362.19137,550.54855 362.84363,551.53102 L 368.46752,551.51322 L 368.46752,540.12957 C 369.78113,538.48037 371.66756,538.44729 372.54418,538.45083 C 381.58291,544.2191 381.40416,527.19794 373.12406,533.66401 C 372.91206,535.1722 368.70591,534.44374 368.40791,532.60997 L 368.40791,523.55909 L 363.61838,523.64838 C 362.51436,525.85772 363.34904,526.38112 363.56129,527.11639 C 368.40591,536.59135 346.45266,539.32394 350.48782,528.03786 C 351.96559,526.86471 353.37203,524.01762 352.60941,523.55908 L 338.78855,523.65697"
       id="path3227"
       sodipodi:nodetypes="ccccccccccccccccccccc" />
  </g>
</svg>
